{
    "asset" : {
        "generator" : "Khronos glTF Blender I/O v1.1.46",
        "version" : "2.0"
    },
    "scene" : 0,
    "scenes" : [
        {
            "name" : "Heart",
            "nodes" : [
                1,
                2,
                3
            ]
        }
    ],
    "nodes" : [
        {
            "mesh" : 0,
            "name" : "Heart",
            "rotation" : [
                -0.7071068286895752,
                0,
                0,
                0.7071068286895752
            ]
        },
        {
            "children" : [
                0
            ],
            "name" : "12190_Heart_v1_L3_root",
            "scale" : [
                0.009999999776482582,
                0.009999999776482582,
                0.009999999776482582
            ]
        },
        {
            "name" : "V_Ray_Sun1",
            "rotation" : [
                0,
                0.7071068286895752,
                -0.7071068286895752,
                4.329781294330012e-17
            ],
            "translation" : [
                0,
                0.2198999971151352,
                -0.36899998784065247
            ]
        },
        {
            "name" : "V_Ray_Sun",
            "rotation" : [
                0.7071068286895752,
                0,
                0,
                0.7071068286895752
            ],
            "translation" : [
                0,
                0.2198999971151352,
                0.18979999423027039
            ]
        }
    ],
    "materials" : [
        {
            "doubleSided" : true,
            "name" : "HeartMat",
            "pbrMetallicRoughness" : {}
        }
    ],
    "meshes" : [
        {
            "name" : "Heart",
            "primitives" : [
                {
                    "attributes" : {
                        "POSITION" : 0,
                        "NORMAL" : 1,
                        "TEXCOORD_0" : 2
                    },
                    "indices" : 3,
                    "material" : 0
                }
            ]
        }
    ],
    "accessors" : [
        {
            "bufferView" : 0,
            "componentType" : 5126,
            "count" : 5974,
            "max" : [
                10.625,
                4.571199893951416,
                19.961200714111328
            ],
            "min" : [
                -10.625,
                -4.570099830627441,
                0.046300001442432404
            ],
            "type" : "VEC3"
        },
        {
            "bufferView" : 1,
            "componentType" : 5126,
            "count" : 5974,
            "type" : "VEC3"
        },
        {
            "bufferView" : 2,
            "componentType" : 5126,
            "count" : 5974,
            "type" : "VEC2"
        },
        {
            "bufferView" : 3,
            "componentType" : 5123,
            "count" : 33792,
            "type" : "SCALAR"
        }
    ],
    "bufferViews" : [
        {
            "buffer" : 0,
            "byteLength" : 71688,
            "byteOffset" : 0
        },
        {
            "buffer" : 0,
            "byteLength" : 71688,
            "byteOffset" : 71688
        },
        {
            "buffer" : 0,
            "byteLength" : 47792,
            "byteOffset" : 143376
        },
        {
            "buffer" : 0,
            "byteLength" : 67584,
            "byteOffset" : 191168
        }
    ],
    "buffers" : [
        {
            "byteLength" : 258752,
            "uri" : "data:application/octet-stream;base64,"
        }
    ]
}
